# xmcd
#
# Track frame offsets: 
#        150
#        22845
#        44079
#        61651
#        94717
#        106788
#        126306
#        164720
#        185028
#        204251
#        221043
#
# Disc length: 3242 seconds
#
# Revision: 0
# Processed by: cddbd v1.5.2PL0 Copyright (c) Steve Scherf et al.
# Submitted via: ExactAudioCopy v1.0b2
#
DISCID=9a0ca80b
DTITLE=Ηλίας Ζούτσος - Σημείο
DYEAR=2012
DGENRE=Folk
TTITLE0=Ζουμπούλι
TTITLE1=Κοντυλιές
TTITLE2=Ο Χωρισμός Κι Ο Θάνατος
TTITLE3=Νοσταλγία
TTITLE4=Αβδελιανός Συρτός
TTITLE5=Φόρα Τα Μαύρα Φόρα τα
TTITLE6=Θάλασσα
TTITLE7=Αερικό
TTITLE8=Η Φορεσιά
TTITLE9=Ανέ Μπορέσω Στη Ζωή
TTITLE10=Το Σκοτάδι
EXTD=
EXTT0=
EXTT1=
EXTT2=
EXTT3=
EXTT4=
EXTT5=
EXTT6=
EXTT7=
EXTT8=
EXTT9=
EXTT10=
PLAYORDER=
